<?xml version="1.0" encoding="UTF-8"?>
<svg id="Layer_1"  width="25" height="25" data-name="Layer 1" xmlns="http://www.w3.org/2000/svg" viewBox="0 0 100 100">
  <path d="M94.72,58.3c0-10.41,0-33.27,0-34.28-.02-2.6-1.37-4.93-3.87-5.87-1.73-.65-16.58-.37-17.69-.37v-6.44c0-.81-.69-1.5-1.5-1.5h-7.34c-.81,0-1.5,.69-1.5,1.5v6.44h-26.51v-6.44c0-.81-.69-1.5-1.5-1.5h-7.34c-.81,0-1.5,.69-1.5,1.5v6.44H13.72c-2.26,0-4.49-.17-6.36,1.41-1.56,1.32-2.09,3.18-2.09,5.15v26.24c0,10.24-.01,32.53,0,33.43,.04,3.04,2.13,5.68,5.23,6.04,1.81,.22,74.58,.05,77.48,.05,1.22,0,2.4-.08,3.53-.65,2.19-1.12,3.2-3.33,3.21-5.7,.04-8.48,0-16.97,0-25.45ZM65.81,13.76c0-.51,.41-.93,.93-.93h2.49c.51,0,.93,.41,.93,.93v11.03c0,.51-.41,.93-.93,.93h-2.49c-.51,0-.93-.41-.93-.93V13.76Zm-36.85,0c0-.51,.41-.93,.93-.93h2.49c.51,0,.93,.41,.93,.93v11.03c0,.51-.41,.93-.93,.93h-2.49c-.51,0-.93-.41-.93-.93V13.76Zm59.84,73.34c-1.63,.08-77.08,.02-77.61,0-1.87-.09-2.92-1.49-2.93-3.26-.06-8.02,0-57.83,0-59.12,0-1.13-.03-2.19,.85-3.09,1.26-1.27,3.65-.86,5.28-.86h11.56v6.44c0,.81,.69,1.5,1.5,1.5,2.45,0,4.89,0,7.34,0,1.09,0,1.5-.46,1.5-1.5,0-2.15,0-4.3,0-6.44h26.51v6.44c0,.81,.69,1.5,1.5,1.5,2.45,0,4.89,0,7.34,0,1.26,0,1.49-.53,1.5-1.5,.02-2.15,0-4.3,0-6.44,3.9,0,15.28-.36,16.71,.2,1.55,.6,1.85,2.04,1.85,3.48v55.98c0,2.45,.66,6.5-2.91,6.66Z"/>
  <path d="M47.01,37.37h-13.02c-.81,0-1.5,.69-1.5,1.5v7.36c0,1.08,.58,1.5,1.5,1.5h13.02c.81,0,1.5-.69,1.5-1.5v-7.36c0-.81-.69-1.5-1.5-1.5Zm-1.5,6.7c0,.36-.29,.66-.66,.66h-8.7c-.36,0-.66-.29-.66-.66v-3.04c0-.36,.29-.66,.66-.66h8.7c.36,0,.66,.29,.66,.66v3.04Z"/>
  <path d="M65.61,37.37h-13.02c-.81,0-1.5,.69-1.5,1.5v7.36c0,1.08,.58,1.5,1.5,1.5h13.02c.81,0,1.5-.69,1.5-1.5v-7.36c0-.81-.69-1.5-1.5-1.5Zm-1.5,6.7c0,.36-.29,.66-.66,.66h-8.7c-.36,0-.66-.29-.66-.66v-3.04c0-.36,.29-.66,.66-.66h8.7c.36,0,.66,.29,.66,.66v3.04Z"/>
  <path d="M84.61,37.37h-13.02c-.81,0-1.5,.69-1.5,1.5v7.36c0,1.08,.58,1.5,1.5,1.5h13.02c.81,0,1.5-.69,1.5-1.5v-7.36c0-.81-.69-1.5-1.5-1.5Zm-1.5,6.7c0,.36-.29,.66-.66,.66h-8.7c-.36,0-.66-.29-.66-.66v-3.04c0-.36,.29-.66,.66-.66h8.7c.36,0,.66,.29,.66,.66v3.04Z"/>
  <path d="M47.01,52.91h-13.02c-.81,0-1.5,.69-1.5,1.5v7.36c0,1.08,.58,1.5,1.5,1.5h13.02c.81,0,1.5-.69,1.5-1.5v-7.36c0-.81-.69-1.5-1.5-1.5Zm-1.5,6.7c0,.36-.29,.66-.66,.66h-8.7c-.36,0-.66-.29-.66-.66v-3.04c0-.36,.29-.66,.66-.66h8.7c.36,0,.66,.29,.66,.66v3.04Z"/>
  <path d="M65.61,52.91h-13.02c-.81,0-1.5,.69-1.5,1.5v7.36c0,1.08,.58,1.5,1.5,1.5h13.02c.81,0,1.5-.69,1.5-1.5v-7.36c0-.81-.69-1.5-1.5-1.5Zm-1.5,6.7c0,.36-.29,.66-.66,.66h-8.7c-.36,0-.66-.29-.66-.66v-3.04c0-.36,.29-.66,.66-.66h8.7c.36,0,.66,.29,.66,.66v3.04Z"/>
  <path d="M84.61,52.91h-13.02c-.81,0-1.5,.69-1.5,1.5v7.36c0,1.08,.58,1.5,1.5,1.5h13.02c.81,0,1.5-.69,1.5-1.5v-7.36c0-.81-.69-1.5-1.5-1.5Zm-1.5,6.7c0,.36-.29,.66-.66,.66h-8.7c-.36,0-.66-.29-.66-.66v-3.04c0-.36,.29-.66,.66-.66h8.7c.36,0,.66,.29,.66,.66v3.04Z"/>
  <path d="M47.01,68.44h-13.02c-.81,0-1.5,.69-1.5,1.5v7.36c0,1.08,.58,1.5,1.5,1.5h13.02c.81,0,1.5-.69,1.5-1.5v-7.36c0-.81-.69-1.5-1.5-1.5Zm-1.5,6.7c0,.36-.29,.66-.66,.66h-8.7c-.36,0-.66-.29-.66-.66v-3.04c0-.36,.29-.66,.66-.66h8.7c.36,0,.66,.29,.66,.66v3.04Z"/>
  <path d="M65.61,68.44h-13.02c-.81,0-1.5,.69-1.5,1.5v7.36c0,1.08,.58,1.5,1.5,1.5h13.02c.81,0,1.5-.69,1.5-1.5v-7.36c0-.81-.69-1.5-1.5-1.5Zm-1.5,6.7c0,.36-.29,.66-.66,.66h-8.7c-.36,0-.66-.29-.66-.66v-3.04c0-.36,.29-.66,.66-.66h8.7c.36,0,.66,.29,.66,.66v3.04Z"/>
  <path d="M84.61,68.44h-13.02c-.81,0-1.5,.69-1.5,1.5v7.36c0,1.08,.58,1.5,1.5,1.5h13.02c.81,0,1.5-.69,1.5-1.5v-7.36c0-.81-.69-1.5-1.5-1.5Zm-1.5,6.7c0,.36-.29,.66-.66,.66h-8.7c-.36,0-.66-.29-.66-.66v-3.04c0-.36,.29-.66,.66-.66h8.7c.36,0,.66,.29,.66,.66v3.04Z"/>
  <path d="M28.41,52.91H15.39c-.81,0-1.5,.69-1.5,1.5v7.36c0,1.08,.58,1.5,1.5,1.5h13.02c.81,0,1.5-.69,1.5-1.5v-7.36c0-.81-.69-1.5-1.5-1.5Zm-1.5,6.7c0,.36-.29,.66-.66,.66h-8.7c-.36,0-.66-.29-.66-.66v-3.04c0-.36,.29-.66,.66-.66h8.7c.36,0,.66,.29,.66,.66v3.04Z"/>
  <path d="M28.41,68.44H15.39c-.81,0-1.5,.69-1.5,1.5v7.36c0,1.08,.58,1.5,1.5,1.5h13.02c.81,0,1.5-.69,1.5-1.5v-7.36c0-.81-.69-1.5-1.5-1.5Zm-1.5,6.7c0,.36-.29,.66-.66,.66h-8.7c-.36,0-.66-.29-.66-.66v-3.04c0-.36,.29-.66,.66-.66h8.7c.36,0,.66,.29,.66,.66v3.04Z"/>
</svg>